# xmcd
#
# Track frame offsets: 
#        150
#        15927
#        33475
#        51007
#        66792
#
# Disc length: 1120 seconds
#
# Revision: 1
# Processed by: cddbd v1.5.2PL0 Copyright (c) Steve Scherf et al.
# Submitted via: ExactAudioCopyFreeDBPlugin 1.0
#
DISCID=34045e05
DTITLE=BONNIE PINK - So Wonderful
DYEAR=1900
DGENRE=J-Pop
TTITLE0=So Wonderful
TTITLE1=Cotton Candy
TTITLE2=Robotomy(Flaming Feathers mix)
TTITLE3=So Wonderful(Instrumental)
TTITLE4=Cotton Candy(Instrumental)
EXTD=
EXTT0=
EXTT1=
EXTT2=
EXTT3=
EXTT4=
PLAYORDER=
